<?xml version="1.0" encoding="UTF-8"?><svg id="Layer_2" xmlns="http://www.w3.org/2000/svg" viewBox="0 0 607.74 196.02"><defs><style>.cls-1{fill:#fff;}</style></defs><g id="Layer_1-2"><g><path d="m135.73,61.87c-2.05-16.03-17.49-28.06-36.17-28.06h-3.23c-18.69,0-34.13,12.03-36.17,28.06-.15.17-.24.39-.24.62v32.22c0,.13.03.26.09.39l2.58,5.79c.16.35.51.58.89.58h15.79v13.85c0,.26.1.5.28.68s.42.28.68.28h6.92v-11.28h2.68v11.28h6.78v-11.28h2.68v11.28h6.78v-11.28h2.68v11.28h6.94c.26,0,.5-.1.68-.28s.28-.43.28-.68v-13.85h15.78c.38,0,.73-.23.88-.58l2.58-5.8c.05-.12.07-.26.08-.39v-32.22c0-.23-.07-.45-.21-.62Zm-44.4,29.76c-2.18,2.18-5.12,3.4-8.2,3.4s-6.03-1.22-8.2-3.4c-2.18-2.18-3.4-5.12-3.4-8.2s1.22-6.03,3.4-8.2c1.51-1.52,3.41-2.58,5.47-3.08l13.85,8c.31,1.06.48,2.16.48,3.28,0,3.08-1.22,6.02-3.4,8.2Zm29.64,0c-2.18,2.18-5.12,3.4-8.2,3.4s-6.03-1.22-8.21-3.4c-2.17-2.18-3.39-5.12-3.39-8.2,0-1.12.16-2.23.48-3.28l13.84-7.99c2.06.49,3.96,1.55,5.48,3.08,2.18,2.17,3.4,5.12,3.4,8.2s-1.22,6.02-3.4,8.2Zm-31.93,49.14c-.46-.8-1.48-1.08-2.29-.61l-23,13.28c-.8.46-1.08,1.49-.61,2.29.46.81,1.49,1.08,2.29.61l23-13.28c.81-.46,1.08-1.48.61-2.29Zm45.45,8.74l-1.21-1.33-.54-1.7-1.7-.55-1.33-1.2-1.74.38h0l-1.75-.38-1.32,1.2-1.7.55-.55,1.7-1.2,1.33.38,1.75-.38,1.74,1.2,1.33.55,1.7,1.7.55,1.32,1.2,1.75-.38,1.75.38,1.32-1.2,1.71-.55.54-1.7,1.21-1.33-.38-1.74.38-1.75Z"/><path class="cls-1" d="m135.73,61.87c-2.05-16.03-17.49-28.06-36.17-28.06h-3.23c-18.69,0-34.13,12.03-36.17,28.06-.15.17-.24.39-.24.62v32.22c0,.13.03.26.09.39l2.58,5.79c.16.35.51.58.89.58h15.79v13.85c0,.26.1.5.28.68s.42.28.68.28h6.92v-11.28h2.68v11.28h6.78v-11.28h2.68v11.28h6.78v-11.28h2.68v11.28h6.94c.26,0,.5-.1.68-.28s.28-.43.28-.68v-13.85h15.78c.38,0,.73-.23.88-.58l2.58-5.8c.05-.12.07-.26.08-.39v-32.22c0-.23-.07-.45-.21-.62Zm-44.4,29.76c-2.18,2.18-5.12,3.4-8.2,3.4s-6.03-1.22-8.2-3.4c-2.18-2.18-3.4-5.12-3.4-8.2s1.22-6.03,3.4-8.2c1.51-1.52,3.41-2.58,5.47-3.08l13.85,8c.31,1.06.48,2.16.48,3.28,0,3.08-1.22,6.02-3.4,8.2Zm29.64,0c-2.18,2.18-5.12,3.4-8.2,3.4s-6.03-1.22-8.21-3.4c-2.17-2.18-3.39-5.12-3.39-8.2,0-1.12.16-2.23.48-3.28l13.84-7.99c2.06.49,3.96,1.55,5.48,3.08,2.18,2.17,3.4,5.12,3.4,8.2s-1.22,6.02-3.4,8.2Z"/><path d="m192.57,117.18c-9.94-5.12-13.72-10.65-13.72-19.17s3.78-14.05,13.72-19.16c2.4-1.23,3.98-4.23,3.28-6.83-2.33-8.79-5.82-17.12-10.29-24.8-1.36-2.33-4.58-3.33-7.15-2.51-10.64,3.4-17.21,2.16-23.23-3.86-6.02-6.02-7.27-12.59-3.86-23.23.82-2.57-.17-5.8-2.51-7.15-7.69-4.47-16.01-7.96-24.8-10.29-2.61-.69-5.6.89-6.83,3.28-5.12,9.94-10.65,13.72-19.16,13.72s-14.05-3.78-19.16-13.72c-1.24-2.4-4.23-3.98-6.83-3.28-8.8,2.33-17.12,5.82-24.8,10.29-2.33,1.36-3.33,4.58-2.51,7.15,3.4,10.64,2.16,17.21-3.86,23.23-6.02,6.02-12.58,7.27-23.23,3.86-2.58-.82-5.8.18-7.16,2.51C5.98,54.9,2.5,63.22.16,72.01c-.69,2.61.88,5.6,3.28,6.83,9.94,5.12,13.71,10.65,13.71,19.16s-3.77,14.05-13.71,19.17c-2.41,1.23-3.98,4.23-3.28,6.83,2.33,8.79,5.82,17.11,10.29,24.8,1.36,2.33,4.58,3.33,7.15,2.51,10.64-3.41,17.22-2.16,23.23,3.85,6.02,6.02,7.27,12.6,3.86,23.23-.82,2.57.17,5.8,2.51,7.15,7.68,4.48,16,7.97,24.8,10.3,2.61.69,5.59-.89,6.82-3.28,5.12-9.96,10.65-13.73,19.18-13.73s14.05,3.78,19.16,13.73c1.23,2.4,4.23,3.97,6.83,3.28,8.79-2.33,17.12-5.82,24.8-10.3,2.33-1.35,3.33-4.58,2.51-7.15-3.4-10.64-2.16-17.21,3.86-23.23,6.02-6.02,12.59-7.27,23.23-3.86,2.57.81,5.8-.19,7.15-2.51,4.47-7.68,7.96-16,10.29-24.8.69-2.61-.89-5.6-3.28-6.83ZM59.93,62.49c0-.23.09-.45.24-.62,2.03-16.03,17.48-28.06,36.17-28.06h3.23c18.69,0,34.13,12.03,36.17,28.06.14.17.21.39.21.62v32.22c0,.13-.03.26-.08.39l-2.58,5.8c-.15.35-.5.58-.88.58h-15.78v13.85c0,.25-.1.5-.28.68s-.42.28-.68.28h-6.94v-11.28h-2.68v11.28h-6.78v-11.28h-2.68v11.28h-6.78v-11.28h-2.68v11.28h-6.92c-.26,0-.5-.1-.68-.28s-.28-.42-.28-.68v-13.85h-15.79c-.38,0-.73-.23-.89-.58l-2.58-5.79c-.06-.13-.09-.26-.09-.39v-32.22Zm70.64,98.55c-.94.25-1.9.36-2.86.34-5.6-.14-10.02-4.78-9.89-10.38l-20.97-11.99-3.98,2.29.2,3.23c.07,1.26-.57,2.47-1.68,3.1l-24.47,14.13c-1.61.93-3.66.38-4.59-1.23l-3.76-6.52c-.93-1.61-.38-3.65,1.23-4.58l24.48-14.13c1.1-.64,2.46-.59,3.53.11l2.7,1.78,1.57-.91-18.93-10.83c-1.53.88-3.27,1.35-5.04,1.35-5.6.01-10.15-4.52-10.16-10.11l8.84,5.11,5.41-2.73-.35-6.05-8.85-5.11c1.54-.89,3.28-1.35,5.06-1.35,3.04,0,5.77,1.34,7.63,3.47v5.29c0,1.21.47,2.35,1.32,3.2s1.99,1.33,3.2,1.33h3.38l18.38,10.71,17.94-10.36c.77-.44,1.33-1.18,1.56-2.04l.06-.22c.28-1.05,1.05-1.9,2.06-2.28l11.9-4.46,2.38,4.11-9.81,8.07c-.84.69-1.96.94-3,.66l-.23-.06c-.86-.23-1.78-.11-2.55.34l-15.59,9,15.96,9.3c.83-.5,1.71-.88,2.64-1.13,5.4-1.46,10.96,1.74,12.41,7.14,1.46,5.4-1.74,10.96-7.14,12.41Z"/><path class="cls-1" d="m137.72,148.63c-1.46-5.4-7.01-8.59-12.41-7.14-.93.25-1.81.63-2.64,1.13l-15.96-9.3,15.59-9c.77-.44,1.69-.56,2.55-.34l.23.06c1.05.28,2.17.04,3-.66l9.81-8.07-2.38-4.11-11.9,4.46c-1.01.38-1.78,1.23-2.06,2.28l-.06.22c-.23.86-.79,1.6-1.56,2.04l-17.94,10.36-18.38-10.71h-3.38c-1.21,0-2.35-.47-3.2-1.33s-1.32-1.98-1.32-3.2v-5.29c-1.86-2.13-4.59-3.47-7.63-3.47-1.78,0-3.52.46-5.06,1.35l8.85,5.11.35,6.05-5.41,2.73-8.84-5.11c0,5.6,4.55,10.13,10.16,10.11,1.77,0,3.5-.47,5.04-1.35l18.93,10.83-1.57.91-2.7-1.78c-1.06-.7-2.43-.74-3.53-.11l-24.48,14.13c-1.61.93-2.16,2.98-1.23,4.58l3.76,6.52c.93,1.61,2.98,2.16,4.59,1.23l24.47-14.13c1.11-.64,1.75-1.84,1.68-3.1l-.2-3.23,3.98-2.29,20.97,11.99c-.14,5.6,4.29,10.24,9.89,10.38.96.03,1.93-.09,2.86-.34,5.4-1.46,8.6-7.02,7.14-12.41Zm-49.3-5.56l-23,13.28c-.8.46-1.83.19-2.29-.61-.46-.8-.19-1.83.61-2.29l23-13.28c.81-.46,1.83-.19,2.29.61.46.81.19,1.83-.61,2.29Zm46.06,9.94l-1.21,1.33-.54,1.7-1.71.55-1.32,1.2-1.75-.38-1.75.38-1.32-1.2-1.7-.55-.55-1.7-1.2-1.33.38-1.74-.38-1.75,1.2-1.33.55-1.7,1.7-.55,1.32-1.2,1.75.38h0l1.74-.38,1.33,1.2,1.7.55.54,1.7,1.21,1.33-.38,1.75.38,1.74Z"/><path d="m124.36,83.43c0,3.08-1.22,6.02-3.4,8.2s-5.12,3.4-8.2,3.4-6.03-1.22-8.21-3.4c-2.17-2.18-3.39-5.12-3.39-8.2,0-1.12.16-2.23.48-3.28l13.84-7.99c2.06.49,3.96,1.55,5.48,3.08,2.18,2.17,3.4,5.12,3.4,8.2Z"/><path d="m94.72,83.43c0,3.08-1.22,6.02-3.4,8.2s-5.12,3.4-8.2,3.4-6.03-1.22-8.2-3.4c-2.18-2.18-3.4-5.12-3.4-8.2s1.22-6.03,3.4-8.2c1.51-1.52,3.41-2.58,5.47-3.08l13.85,8c.31,1.06.48,2.16.48,3.28Z"/></g><g><g><path d="m276.45,44.55l.39.09.39.09.44.13.39.09.39.13.39.13.35.17.39.13.35.17.39.22.35.18.39.17.35.22.35.17.31.22.35.22.35.22.31.26.35.22.31.26.26.26.26.26.26.26.26.26.44.57.22.26.26.31.22.31.22.31.22.31.22.35.17.35.22.35.18.35.22.35.17.35.13.39.17.35.13.39.04.17.09.22.04.13.09.22.04.17.04.09v.09l.04.04v.09l.04.17.04.09v.09l.04.13.04.17.04.13.04.13.04.13v.13l.04.13v.13l.04.13.04.17.04.22v.17l.04.09v.17h.04l-10.8,3.54-.04-.44-.09-.39-.09-.39-.09-.39-.09-.39-.09-.35-.17-.39-.13-.35-.17-.31-.09-.17-.09-.13-.09-.17-.09-.13-.09-.13-.09-.13-.22-.26-.09-.13-.09-.09-.13-.13-.09-.09-.22-.17-.13-.09-.13-.09-.13-.09-.13-.04-.17-.09-.13-.04-.17-.09-.17-.04-.17-.04-.22-.04-.17-.09h-.22l-.22-.04-.22-.04-.22-.04h-.26l-6.38-.13-.04.04h-.44l-.44.04-.17.04-.22.04-.39.09-.35.13-.39.13-.35.17-.17.09-.17.09-.17.09-.17.13-.18.09-.13.13-.13.13-.13.13-.17.13-.09.13-.13.13-.09.13-.22.31-.09.17-.09.17-.09.17-.09.17-.13.35-.09.35-.13.39-.04.39-.04.39-.04.39v.87l.04.04.17,25.44-.04.44v.44l-.04.87v1.75l.04.22v.22l.04.22v.22l.09.17.04.17.04.22.09.17.09.17.09.17.13.13.09.17.13.18.13.13.13.13.17.13.13.13.17.09.35.26.31.17.17.09.22.09.17.04.17.09.17.04.22.09.39.09.22.04h.22l8.09-.13.26-.04h.17l.22-.04.22-.04.09-.04h.09l.22-.04.17-.04.09-.04h.09l.09-.04h.04l.09-.04h.04l.04-.04.13-.04.09-.04.04-.04.13-.04.13-.09.13-.04.09-.09.22-.17.04-.09.04-.04.13-.09.09-.13.09-.09.09-.13.04-.04.09-.09.09-.13.09-.13.09-.13.09-.13.09-.17.09-.18.09-.13.09-.17.04-.17.09-.17.04-.09v-.04l.04-.04.04-.22.09-.17.04-.17.04-.04v-.04l.04-.13.04-.17v-.09l.04-.04v-.09l.04-.17.04-.22.04-.17v-.13l.04-.09.04-.22.04-.22v-.22l10.36,3.23-.09.44v.13l-.04.04v.26l-.09.44-.04.17-.04.22-.04.09-.04.13-.04.22-.04.18-.04.22-.13.39-.04.09-.04.09-.04.22-.17.35-.13.39-.17.35-.13.39-.17.35-.17.35-.18.35-.17.35-.09.13-.09.17-.17.35-.22.31-.18.31-.22.31-.13.13-.09.18-.22.31-.13.13-.09.13-.22.26-.26.31-.13.09-.13.17-.13.09-.13.13-.04.09-.09.04-.13.13-.26.26-.17.09-.04.04-.09.09-.31.22-.31.22-.31.22-.35.22-.31.22-.35.17-.04.04h-.04l-.04.04-.17.09-.31.17-.31.17-.66.31-.35.13-.31.13-.31.09-.31.13-.61.22h-.09l-.09.04h-.13l-.09.04h-.13l-.13.04h-.13l-.13.04h-.39l-.09.04h-.48l-.09.04h-.39l-.22.04h-.61l-.13.04h-1.35l-7.96.09h-1.36l-.13-.04h-.26l-.17-.04h-.13l-.17-.04-.17-.04-.17-.04h-.13l-.22-.04-.17-.04-.18-.04h-.04l-.04-.04h-.13l-.17-.04-.39-.13-.39-.09-.44-.13-.35-.17-.39-.13-.39-.17-.39-.17-.35-.17-.39-.17-.35-.22-.35-.22-.35-.22-.35-.22-.31-.22-.31-.22-.31-.26-.31-.26-.31-.26-.31-.26-.26-.26-.31-.31-.26-.31-.31-.31-.22-.35-.31-.31-.22-.35-.26-.35-.22-.39-.22-.35-.22-.39-.22-.39-.17-.39-.22-.39-.13-.39-.17-.39-.13-.39-.17-.39-.13-.35-.09-.35-.13-.39-.09-.35-.09-.35-.09-.39-.04-.39-.09-.35-.04-.39-.04-.39v-.44l-.04-.13v-.48l-.13-31.65v-.09l.04-.39.04-.35.09-.35.04-.31.04-.35.09-.31.04-.31.09-.26.04-.26.09-.31.09-.26.04-.22.09-.22.09-.22.09-.22.09-.17.35-.74.39-.74.39-.74.44-.7.26-.35.22-.35.26-.35.26-.31.31-.31.26-.35.35-.31.31-.26.35-.31.35-.31.31-.22.35-.26.35-.22.31-.22.35-.17.31-.17.7-.35.66-.31.7-.26.7-.22.35-.13.35-.13.35-.09.39-.09.39-.13.35-.09.44-.04.39-.09.44-.09.39-.04.44-.04.44-.04h9.4l.22.04h.48l.22.04h.57l.17.04h.13l.13.04h.13l.13.04Z"/><path d="m329.51,45.17l.35.13.17.04.17.09.35.13.35.17.31.13.35.17.35.17.31.22.31.17.35.22.26.22.31.22.31.26.31.22.26.26.26.31.26.26.26.26.22.31.26.31.22.26.22.31.22.35.22.31.17.35.22.35.17.31.17.35.13.35.17.35.13.35.13.39.13.35.09.35.13.35.04.39.09.35.04.39.04.35.04.39v.35l.04.31v.83l.04.17v1.01l-.04,7.96-.04.26v.7l-.04.22v.22l-.04.22v.22l-.04.22-.04.22v.09l-.04.04v.31l-.04.17-.04.13v.09l-.04.04v.17l-.04.17-.04.22-.09.17-.04.22-.04.17-.04.17-.09.17-.04.22-.09.17-.04.17-.09.17-.04.04-.04.09v.04l-.09.13-.04.17-.09.17h-.04v.09l-.04.09-.09.13-.09.17-.13.17-.09.13-.09.17-.04.09-.09.04-.09.17-.04.09-.04.04-.13.17-.09.13-.13.13-.09.13-.04.04h-.04l-.04.09-.04.09h-.04v.04l-.13.13-.13.13-.09.13-.13.09-.13.13-.26.22-.26.22-.13.13-.04.04-.09.04-.09.09-.04.04-.17.09-.13.13-.13.13-.35.17-.13.13-.17.09-.17.13-.17.09-.31.17-.35.17-.35.17-.31.13-.35.17-.35.13-.31.09-.17.04-.17.04-.31.13h-.17l-.13.04-.13.04-.17.04-.26.04-.26.09h-.13l-.09.04-.26.04h-.39l-.17.04h-.88l12.28,26.14h-12.06l-12.63-26.01h-3.1l.04,26.05h-11.1l-.09-61.11,22.47-.04.57-.04h1.01l.52.04h.48l.44.04.48.04.44.04.44.09.44.04.44.09.44.09.39.09.35.09.39.13.35.09Zm-4.24,10.8l-.39-.09-.35-.09-.22-.04-.17-.04-.39-.04-.44-.04h-12.15l.04,13.07,11.19-.04h1.92l.13-.04.13-.04h.13l.13-.04.13-.04.13-.09.17-.04.04-.04h.04v-.04l.13-.09.13-.09.17-.09.22-.22.13-.09.13-.13.09-.09.04-.04.13-.13v-.09h.04l.04-.09.04-.09.04-.04.09-.17.04-.17.09-.17v-.09l.04-.04v-.09l.04-.09v-.13l.04-.09v-.09l.04-.22v-.66l.04-.04h-.04v-5.07h.04v-.7l-.04-.09v-.39l-.04-.09v-.26l-.04-.13-.04-.17v-.17l-.04-.17-.04-.17-.09-.17-.04-.13-.09-.17-.09-.13-.09-.13-.09-.09-.13-.13-.09-.09-.13-.13-.13-.09-.17-.09-.13-.04-.17-.09-.17-.04Z"/><path d="m362.25,44.29h10.75l14.16,60.98-10.8.09-2.27-9.97-12.41.09-2.27,9.88-10.75.09,13.59-61.15Zm5.33,21.29l-.17.04-.09.09-.09.04-.09.09-.04.04-.04.09-.04.09v.09l-3.45,17.75v.13l.04.09v.13l.04.04.04.04.04.04v.09l.09.04.09.13.04.04.09.04.04.09.04.04h.09l.09.04h6.73l.17-.04h.13l.17-.04h.09l.09-.04h.09l.09-.04.04-.04.09-.04.04-.04.09-.09.04-.04.04-.09.04-.09.04-.04v-.04l.04-.04v-.31l-1.92-8.92-1.92-8.87-.13-.17-.09-.13-.13-.09-.13-.09-.13-.04h-.22l-.09.04Z"/><path d="m436.7,44.38v10.88l-25.53,39.38,25.96-.04v10.88h-38.95l-.09-10.49,25.79-39.52-26.1.09-.13-11.19h39.04Z"/><path d="m485.96,44.38v1.62l-.04.79v.79l-.04.79-.04.79-.09.74-.09.79-.13.7-.13.7-.09.39-.04.17-.04.22-.13.39-.09.17-.04.22-.09.22-.09.22-.09.22-.09.26-.09.13-.04.13-.09.17-.09.17-.04.13-.04.09-.09.22-.04.13-.04.13-.09.09-.04.17-11.67,26.49.13,22.86h-10.84l-.22-22.73-12.06-26.53-.13-.26-.09-.22-.09-.26-.09-.17-.09-.22-.09-.13-.04-.17-.04-.13-.09-.26-.09-.22-.13-.22-.04-.22-.17-.39-.04-.17-.09-.22-.09-.39-.09-.39-.13-.7-.09-.7-.13-.79-.04-.74-.09-.79v-.79l-.04-.79v-2.49h10.8v3.02l.04.09v.44l.04.44.04.44.04.22.04.22.04.22.04.22.09.35.04.22.04.13.04.17.09.17.04.04v.09l.04.09.04.04v.09l.04.09.09.17.04.09.04.13.09.22.13.31.09.13.09.17.04.17.09.17,7.04,15.91,7.56-16.96.04-.13.04-.13.04-.13.04-.09.04-.13.04-.04.04-.09.04-.09v-.09l.04-.04v-.04l.04-.04.04-.04.04-.17.04-.13.09-.22v-.09l.04-.09v-.09l.04-.09.04-.17.04-.22.04-.22.04-.22v-.09l.04-.09v-.26l.04-.09v-.31l.04-.26v-3.02l.04-.39h10.75Z"/><path d="m535.44,44.29v10.93l-27.63.04.17,14.34,19.76-.13.04,11.1h-19.98l.09,24.87-11.15-.04-.22-61.11h38.9Z"/><path d="m546.81,44.42l10.75-.04.17,61.07h-10.71l-.22-61.02Z"/><path d="m607.22,48.27l-.09.39-.04.44-.09.39-.09.39-.09.39-.09.39-.13.35-.09.39-.04.17-.04.22-.13.35-.04.17-.09.17-.09.35-.09.17-.04.09v.09l-.09.17-.04.04-.04.13-.04.13-.09.17-.17.31-.13.26-.17.35-.17.31-.22.35-10.32,19.58,11.19,19.93.17.31.22.31.17.35.17.31.17.35.17.35.17.35.17.39.09.13.04.22.13.35.04.17.04.17.09.39.04.39.04.44.09.83v.92l.04.31v3.5h-10.58v-1.75l-.04-.22v-.66l-.04-.22v-.22l-.04-.09v-.13l-.04-.13v-.09l-.04-.09v-.04l-.13-.31-.17-.35-.17-.35-.17-.31-.13-.22-.09-.09-.04-.09-.09-.22-.09-.09-.09-.09-.04-.13-.04-.09-.04-.04-.13-.26-.04-.04v-.09l-.09-.13-.17-.26-7.78-13.51-6.95,13.64-.04.04-.09.31-.13.26-.13.26-.09.22-.09.22-.09.22-.09.17-.09.17-.13.35-.13.35-.09.35-.04.35-.04.09v.26l-.04.13v2.54l.04.35h-10.18l-.04-.39v-.39l-.04-.39v-.7l-.04-.35v-1.27l.04-.26v-.57l.04-.26v-.22l.04-.26v-.22l.04-.22.04-.44.04-.22v-.17l.04-.35.04-.17v-.13l.04-.17v-.13l.04-.13v-.13l.04-.09v-.13l.09-.39.04-.22.09-.17.13-.39.17-.35.35-.79.35-.7.17-.39.22-.35.17-.39.22-.35,9.18-18.27-10.67-21.16v-.04l-.04-.13-.09-.13-.04-.17-.09-.13v-.13l-.04-.09-.04-.13-.09-.13-.04-.17-.04-.13-.09-.17-.09-.17-.13-.39-.13-.39-.04-.17-.04-.22-.09-.39-.09-.39-.04-.22-.04-.22v-.22l-.04-.22v-.44l-.04-.09v-3.67l.04-.57h10.45l.04.48v.66l.04.31v.52l.04.22.04.26.04.39.09.44.13.44.09.48.04.22.09.22.04.17.04.17.09.17.04.13.09.13.04.09.04.09.04.04.04.09.04.09.04.09.04.09.04.13.09.13.04.13.09.13.04.13.09.17.09.13.09.17.09.17.09.22.04.04,6.51,12.76,7.26-13.42.09-.31.09-.09.04-.13.09-.13.04-.09.13-.22.04-.09.04-.09.09-.17.04-.09.04-.09.04-.04v-.09l.04-.04.04-.09.04-.13.04-.09v-.09l.04-.09.04-.04v-.13l.04-.09.04-.18.04-.17v-.13l.04-.09.04-.44.04-.39.09-.44v-.52l.04-.13v-2.05h11.1v2.19l-.04.39v.44l-.04.44-.04.44Z"/></g><g><path d="m263.73,124.01h-2.67l-11.22,27.32h3.98l2.48-6.18h12.11l2.47,6.18h4.01l-11.14-27.32Zm-6.15,17.91l4.77-11.93,4.76,11.93h-9.52Z"/><path d="m300.74,151.73c-2.02,0-3.83-.46-5.43-1.38-1.6-.92-2.87-2.17-3.8-3.76-.93-1.59-1.4-3.38-1.4-5.38v-17.21h3.74v17.13c0,1.44.3,2.69.91,3.74.6,1.05,1.42,1.86,2.46,2.44,1.04.58,2.21.87,3.52.87s2.47-.29,3.48-.87c1.01-.58,1.81-1.39,2.4-2.44.59-1.05.89-2.28.89-3.7v-17.17h3.74v17.25c0,2-.46,3.78-1.38,5.36-.92,1.57-2.17,2.82-3.74,3.74-1.57.92-3.37,1.38-5.39,1.38Z"/><polygon points="348.97 124.01 348.97 127.39 339.72 127.39 339.72 151.34 335.99 151.34 335.99 127.39 326.73 127.39 326.73 124.01 348.97 124.01"/><path d="m375.67,151.73c-1.94,0-3.75-.36-5.43-1.08-1.68-.72-3.15-1.73-4.41-3.03-1.26-1.3-2.24-2.8-2.95-4.51-.71-1.71-1.06-3.53-1.06-5.47s.36-3.8,1.06-5.49c.71-1.69,1.69-3.18,2.93-4.47,1.25-1.29,2.7-2.28,4.37-2.99,1.67-.71,3.47-1.06,5.41-1.06s3.75.35,5.41,1.06c1.67.71,3.13,1.71,4.39,2.99,1.26,1.29,2.24,2.78,2.95,4.49.71,1.71,1.06,3.54,1.06,5.51s-.35,3.77-1.06,5.47c-.71,1.71-1.69,3.2-2.93,4.49-1.25,1.29-2.7,2.29-4.37,3.01s-3.46,1.08-5.37,1.08Zm-.08-3.54c1.94,0,3.66-.45,5.16-1.36,1.5-.91,2.67-2.15,3.52-3.74.85-1.59,1.28-3.41,1.28-5.45,0-1.52-.24-2.92-.73-4.19-.49-1.27-1.18-2.38-2.07-3.33-.89-.95-1.94-1.67-3.15-2.19-1.21-.51-2.55-.77-4.02-.77-1.94,0-3.66.45-5.14,1.34-1.48.89-2.65,2.13-3.5,3.7s-1.28,3.39-1.28,5.43c0,1.52.24,2.93.73,4.23.48,1.3,1.17,2.42,2.05,3.35.88.93,1.93,1.66,3.15,2.19,1.22.53,2.55.79,4,.79Z"/><polygon points="432.88 124.01 432.88 151.34 429.18 151.34 429.18 132.11 420.91 145.75 418.28 145.75 410.01 132.11 410.01 151.34 406.31 151.34 406.31 124.01 408.9 124.01 419.6 141.58 430.28 124.01 432.88 124.01"/><path d="m463.6,151.73c-1.94,0-3.75-.36-5.43-1.08-1.68-.72-3.15-1.73-4.41-3.03-1.26-1.3-2.24-2.8-2.95-4.51-.71-1.71-1.06-3.53-1.06-5.47s.36-3.8,1.06-5.49c.71-1.69,1.69-3.18,2.93-4.47,1.25-1.29,2.7-2.28,4.37-2.99,1.67-.71,3.47-1.06,5.41-1.06s3.75.35,5.41,1.06c1.67.71,3.13,1.71,4.39,2.99,1.26,1.29,2.24,2.78,2.95,4.49.71,1.71,1.06,3.54,1.06,5.51s-.35,3.77-1.06,5.47c-.71,1.71-1.69,3.2-2.93,4.49-1.25,1.29-2.7,2.29-4.37,3.01s-3.46,1.08-5.37,1.08Zm-.08-3.54c1.94,0,3.66-.45,5.16-1.36,1.5-.91,2.67-2.15,3.52-3.74.85-1.59,1.28-3.41,1.28-5.45,0-1.52-.24-2.92-.73-4.19-.49-1.27-1.18-2.38-2.07-3.33-.89-.95-1.94-1.67-3.15-2.19-1.21-.51-2.55-.77-4.02-.77-1.94,0-3.66.45-5.14,1.34-1.48.89-2.65,2.13-3.5,3.7-.85,1.57-1.28,3.39-1.28,5.43,0,1.52.24,2.93.73,4.23.48,1.3,1.17,2.42,2.05,3.35.88.93,1.93,1.66,3.15,2.19,1.22.53,2.55.79,4,.79Z"/><polygon points="512.46 124.01 512.46 127.39 503.21 127.39 503.21 151.34 499.46 151.34 499.46 127.39 490.21 127.39 490.21 124.01 512.46 124.01"/><path d="m528.68,151.34v-27.33h3.7v27.33h-3.7Z"/><polygon points="573.29 124.01 562.26 151.34 559.59 151.34 548.6 124.01 552.67 124.01 560.96 145.26 569.31 124.01 573.29 124.01"/><polygon points="607.74 147.95 607.74 151.34 589.55 151.34 589.55 124.01 607.55 124.01 607.55 127.39 593.25 127.39 593.25 135.75 606.45 135.75 606.45 139.01 593.25 139.01 593.25 147.95 607.74 147.95"/></g></g></g></svg>