<?xml version="1.0" encoding="utf-8"?>
<!-- Generator: Adobe Illustrator 27.1.1, SVG Export Plug-In . SVG Version: 6.00 Build 0)  -->
<svg version="1.1" id="Layer_2_00000008833643626859749820000006414109390318740873_"
	 xmlns="http://www.w3.org/2000/svg" xmlns:xlink="http://www.w3.org/1999/xlink" x="0px" y="0px" viewBox="0 0 199 94.2"
	 style="enable-background:new 0 0 199 94.2;" xml:space="preserve">
<style type="text/css">
	.st0{fill:#C32CF5;}
	.st1{fill:#7A18F2;}
	.st2{fill:#5A13F2;}
</style>
<g id="Layer_1-2">
	<g>
		<g>
			<g>
				<path class="st0" d="M55.9,13.6l-2.8,6.7l-23.2-9.7L32.7,4c0.9-2.2,3.4-3.2,5.5-2.3l15.4,6.4C55.8,9,56.8,11.5,55.9,13.6
					L55.9,13.6z"/>
				
					<rect x="-1" y="35" transform="matrix(0.3846 -0.9231 0.9231 0.3846 -26.6572 55.2329)" class="st0" width="58.3" height="25.1"/>
				<path class="st0" d="M3.1,74.9l23.2,9.7l-2.8,6.7c-0.9,2.2-3.4,3.2-5.5,2.3L2.6,87.1c-2.2-0.9-3.2-3.4-2.3-5.5L3.1,74.9
					L3.1,74.9z"/>
			</g>
			<g>
				<path class="st1" d="M87.4,7.9L86.2,15l-24.7-4.4l1.3-7.1c0.4-2.3,2.6-3.8,4.9-3.4l16.4,3C86.4,3.4,87.9,5.6,87.4,7.9L87.4,7.9z
					"/>
				
					<rect x="38.5" y="34.5" transform="matrix(0.1769 -0.9842 0.9842 0.1769 9.3215 105.3254)" class="st1" width="58.3" height="25.1"/>
				<path class="st1" d="M49.1,79.2l24.7,4.4l-1.3,7.1c-0.4,2.3-2.6,3.8-4.9,3.4l-16.4-2.9c-2.3-0.4-3.8-2.6-3.4-4.9L49.1,79.2
					L49.1,79.2z"/>
			</g>
			<g>
				<path class="st2" d="M192.3,0.6H99.3c-3.7,0-6.7,3-6.7,6.7v13.3c0,3.7,3,6.6,6.7,6.6h93.1c3.7,0,6.6-3,6.6-6.6V7.2
					C199,3.5,196,0.6,192.3,0.6L192.3,0.6z M169.1,18.9c-2.8,0-5-2.2-5-5s2.2-5,5-5s5,2.2,5,5S171.8,18.9,169.1,18.9z M182.4,18.9
					c-2.8,0-5-2.2-5-5s2.2-5,5-5s5,2.2,5,5S185.1,18.9,182.4,18.9z"/>
				<path class="st2" d="M192.3,33.8H99.3c-3.7,0-6.7,3-6.7,6.7v13.3c0,3.7,3,6.7,6.7,6.7h93.1c3.7,0,6.6-3,6.6-6.7V40.5
					C199,36.8,196,33.8,192.3,33.8z M169.1,52.1c-2.8,0-5-2.2-5-5s2.2-5,5-5s5,2.2,5,5S171.8,52.1,169.1,52.1z M182.4,52.1
					c-2.8,0-5-2.2-5-5s2.2-5,5-5s5,2.2,5,5S185.1,52.1,182.4,52.1z"/>
				<path class="st2" d="M192.3,67.1H99.3c-3.7,0-6.7,3-6.7,6.7V87c0,3.7,3,6.7,6.7,6.7h93.1c3.7,0,6.6-3,6.6-6.7V73.7
					C199,70,196,67.1,192.3,67.1z M169.1,85.3c-2.8,0-5-2.2-5-5s2.2-5,5-5s5,2.2,5,5S171.8,85.3,169.1,85.3z M182.4,85.3
					c-2.8,0-5-2.2-5-5s2.2-5,5-5s5,2.2,5,5S185.1,85.3,182.4,85.3z"/>
			</g>
		</g>
	</g>
</g>
</svg>
