<?xml version="1.0" encoding="utf-8"?>
<!-- Generator: Adobe Illustrator 27.1.1, SVG Export Plug-In . SVG Version: 6.00 Build 0)  -->
<svg version="1.1" id="Layer_2_00000047021991906364281470000005604748360099112587_"
	 xmlns="http://www.w3.org/2000/svg" xmlns:xlink="http://www.w3.org/1999/xlink" x="0px" y="0px" viewBox="0 0 607.7 196"
	 style="enable-background:new 0 0 607.7 196;" xml:space="preserve">
<style type="text/css">
	.st0{fill:#FFFFFF;}
</style>
<g id="Layer_1-2">
	<g>
		<path class="st0" d="M135.7,61.9c-2.1-16-17.5-28.1-36.2-28.1h-3.2c-18.7,0-34.1,12-36.2,28.1c-0.2,0.2-0.2,0.4-0.2,0.6v32.2
			c0,0.1,0,0.3,0.1,0.4l2.6,5.8c0.2,0.3,0.5,0.6,0.9,0.6h15.8v13.8c0,0.3,0.1,0.5,0.3,0.7s0.4,0.3,0.7,0.3h6.9V105h2.7v11.3h6.8V105
			h2.7v11.3h6.8V105h2.7v11.3h6.9c0.3,0,0.5-0.1,0.7-0.3s0.3-0.4,0.3-0.7v-13.8h15.8c0.4,0,0.7-0.2,0.9-0.6l2.6-5.8
			c0.1-0.1,0.1-0.3,0.1-0.4V62.5C136,62.2,135.9,62,135.7,61.9L135.7,61.9z M91.3,91.6c-2.2,2.2-5.1,3.4-8.2,3.4s-6-1.2-8.2-3.4
			c-2.2-2.2-3.4-5.1-3.4-8.2s1.2-6,3.4-8.2c1.5-1.5,3.4-2.6,5.5-3.1l13.8,8c0.3,1.1,0.5,2.2,0.5,3.3C94.7,86.5,93.5,89.4,91.3,91.6z
			 M121,91.6c-2.2,2.2-5.1,3.4-8.2,3.4s-6-1.2-8.2-3.4c-2.2-2.2-3.4-5.1-3.4-8.2c0-1.1,0.2-2.2,0.5-3.3l13.8-8
			c2.1,0.5,4,1.6,5.5,3.1c2.2,2.2,3.4,5.1,3.4,8.2S123.2,89.5,121,91.6L121,91.6z M89,140.8c-0.5-0.8-1.5-1.1-2.3-0.6l-23,13.3
			c-0.8,0.5-1.1,1.5-0.6,2.3c0.5,0.8,1.5,1.1,2.3,0.6l23-13.3C89.2,142.6,89.5,141.6,89,140.8z M134.5,149.5l-1.2-1.3l-0.5-1.7
			l-1.7-0.6l-1.3-1.2l-1.7,0.4l0,0l-1.8-0.4l-1.3,1.2l-1.7,0.6l-0.6,1.7l-1.2,1.3l0.4,1.8l-0.4,1.7l1.2,1.3l0.6,1.7l1.7,0.6l1.3,1.2
			l1.8-0.4l1.8,0.4l1.3-1.2l1.7-0.6l0.5-1.7l1.2-1.3l-0.4-1.7L134.5,149.5L134.5,149.5z"/>
		<path d="M135.7,61.9c-2.1-16-17.5-28.1-36.2-28.1h-3.2c-18.7,0-34.1,12-36.2,28.1c-0.2,0.2-0.2,0.4-0.2,0.6v32.2
			c0,0.1,0,0.3,0.1,0.4l2.6,5.8c0.2,0.3,0.5,0.6,0.9,0.6h15.8v13.8c0,0.3,0.1,0.5,0.3,0.7s0.4,0.3,0.7,0.3h6.9V105h2.7v11.3h6.8V105
			h2.7v11.3h6.8V105h2.7v11.3h6.9c0.3,0,0.5-0.1,0.7-0.3s0.3-0.4,0.3-0.7v-13.8h15.8c0.4,0,0.7-0.2,0.9-0.6l2.6-5.8
			c0.1-0.1,0.1-0.3,0.1-0.4V62.5C136,62.2,135.9,62,135.7,61.9L135.7,61.9z M91.3,91.6c-2.2,2.2-5.1,3.4-8.2,3.4s-6-1.2-8.2-3.4
			c-2.2-2.2-3.4-5.1-3.4-8.2s1.2-6,3.4-8.2c1.5-1.5,3.4-2.6,5.5-3.1l13.8,8c0.3,1.1,0.5,2.2,0.5,3.3C94.7,86.5,93.5,89.4,91.3,91.6z
			 M121,91.6c-2.2,2.2-5.1,3.4-8.2,3.4s-6-1.2-8.2-3.4c-2.2-2.2-3.4-5.1-3.4-8.2c0-1.1,0.2-2.2,0.5-3.3l13.8-8
			c2.1,0.5,4,1.6,5.5,3.1c2.2,2.2,3.4,5.1,3.4,8.2S123.2,89.5,121,91.6L121,91.6z"/>
		<path class="st0" d="M192.6,117.2c-9.9-5.1-13.7-10.7-13.7-19.2s3.8-14.1,13.7-19.2c2.4-1.2,4-4.2,3.3-6.8
			c-2.3-8.8-5.8-17.1-10.3-24.8c-1.4-2.3-4.6-3.3-7.1-2.5c-10.6,3.4-17.2,2.2-23.2-3.9c-6-6-7.3-12.6-3.9-23.2
			c0.8-2.6-0.2-5.8-2.5-7.1c-7.7-4.5-16-8-24.8-10.3c-2.6-0.7-5.6,0.9-6.8,3.3c-5.1,9.9-10.7,13.7-19.2,13.7S84,13.4,78.9,3.5
			c-1.2-2.4-4.2-4-6.8-3.3C63.2,2.5,54.9,6,47.2,10.5c-2.3,1.4-3.3,4.6-2.5,7.2c3.4,10.6,2.2,17.2-3.9,23.2s-12.6,7.3-23.2,3.9
			c-2.6-0.8-5.8,0.2-7.2,2.5C6,54.9,2.5,63.2,0.2,72c-0.7,2.6,0.9,5.6,3.3,6.8C13.4,84,17.1,89.5,17.1,98s-3.8,14.1-13.7,19.2
			c-2.4,1.2-4,4.2-3.3,6.8c2.3,8.8,5.8,17.1,10.3,24.8c1.4,2.3,4.6,3.3,7.2,2.5c10.6-3.4,17.2-2.2,23.2,3.9c6,6,7.3,12.6,3.9,23.2
			c-0.8,2.6,0.2,5.8,2.5,7.1c7.7,4.5,16,8,24.8,10.3c2.6,0.7,5.6-0.9,6.8-3.3c5.1-10,10.7-13.7,19.2-13.7s14.1,3.8,19.2,13.7
			c1.2,2.4,4.2,4,6.8,3.3c8.8-2.3,17.1-5.8,24.8-10.3c2.3-1.4,3.3-4.6,2.5-7.1c-3.4-10.6-2.2-17.2,3.9-23.2c6-6,12.6-7.3,23.2-3.9
			c2.6,0.8,5.8-0.2,7.1-2.5c4.5-7.7,8-16,10.3-24.8C196.5,121.4,194.9,118.4,192.6,117.2L192.6,117.2z M59.9,62.5
			c0-0.2,0.1-0.5,0.2-0.6c2-16,17.5-28.1,36.2-28.1h3.2c18.7,0,34.1,12,36.2,28.1c0.1,0.2,0.2,0.4,0.2,0.6v32.2c0,0.1,0,0.3-0.1,0.4
			l-2.6,5.8c-0.1,0.3-0.5,0.6-0.9,0.6h-15.8v13.8c0,0.2-0.1,0.5-0.3,0.7s-0.4,0.3-0.7,0.3h-6.9V105H106v11.3h-6.8V105h-2.7v11.3
			h-6.8V105h-2.7v11.3h-6.9c-0.3,0-0.5-0.1-0.7-0.3s-0.3-0.4-0.3-0.7v-13.8H63.5c-0.4,0-0.7-0.2-0.9-0.6L60,95.1
			c-0.1-0.1-0.1-0.3-0.1-0.4L59.9,62.5L59.9,62.5z M130.6,161c-0.9,0.2-1.9,0.4-2.9,0.3c-5.6-0.1-10-4.8-9.9-10.4l-21-12l-4,2.3
			l0.2,3.2c0.1,1.3-0.6,2.5-1.7,3.1l-24.5,14.1c-1.6,0.9-3.7,0.4-4.6-1.2l-3.8-6.5c-0.9-1.6-0.4-3.6,1.2-4.6l24.5-14.1
			c1.1-0.6,2.5-0.6,3.5,0.1l2.7,1.8l1.6-0.9l-18.9-10.8c-1.5,0.9-3.3,1.3-5,1.3c-5.6,0-10.2-4.5-10.2-10.1l8.8,5.1l5.4-2.7l-0.3-6.1
			l-8.8-5.1c1.5-0.9,3.3-1.3,5.1-1.3c3,0,5.8,1.3,7.6,3.5v5.3c0,1.2,0.5,2.3,1.3,3.2s2,1.3,3.2,1.3h3.4l18.4,10.7l17.9-10.4
			c0.8-0.4,1.3-1.2,1.6-2l0.1-0.2c0.3-1.1,1.1-1.9,2.1-2.3l11.9-4.5l2.4,4.1l-9.8,8.1c-0.8,0.7-2,0.9-3,0.7l-0.2-0.1
			c-0.9-0.2-1.8-0.1-2.6,0.3l-15.6,9l16,9.3c0.8-0.5,1.7-0.9,2.6-1.1c5.4-1.5,11,1.7,12.4,7.1C139.2,154,136,159.6,130.6,161
			L130.6,161z"/>
		<path d="M137.7,148.6c-1.5-5.4-7-8.6-12.4-7.1c-0.9,0.2-1.8,0.6-2.6,1.1l-16-9.3l15.6-9c0.8-0.4,1.7-0.6,2.6-0.3l0.2,0.1
			c1.1,0.3,2.2,0,3-0.7l9.8-8.1l-2.4-4.1l-11.9,4.5c-1,0.4-1.8,1.2-2.1,2.3l-0.1,0.2c-0.2,0.9-0.8,1.6-1.6,2L102,130.6l-18.4-10.7
			h-3.4c-1.2,0-2.3-0.5-3.2-1.3s-1.3-2-1.3-3.2V110c-1.9-2.1-4.6-3.5-7.6-3.5c-1.8,0-3.5,0.5-5.1,1.3l8.9,5.1l0.3,6.1l-5.4,2.7
			l-8.8-5.1c0,5.6,4.5,10.1,10.2,10.1c1.8,0,3.5-0.5,5-1.3l18.9,10.8l-1.6,0.9l-2.7-1.8c-1.1-0.7-2.4-0.7-3.5-0.1l-24.5,14.1
			c-1.6,0.9-2.2,3-1.2,4.6l3.8,6.5c0.9,1.6,3,2.2,4.6,1.2l24.5-14.1c1.1-0.6,1.8-1.8,1.7-3.1l-0.2-3.2l4-2.3l21,12
			c-0.1,5.6,4.3,10.2,9.9,10.4c1,0,1.9-0.1,2.9-0.3C136,159.6,139.2,154,137.7,148.6L137.7,148.6z M88.4,143.1l-23,13.3
			c-0.8,0.5-1.8,0.2-2.3-0.6s-0.2-1.8,0.6-2.3l23-13.3c0.8-0.5,1.8-0.2,2.3,0.6C89.5,141.6,89.2,142.6,88.4,143.1z M134.5,153
			l-1.2,1.3l-0.5,1.7l-1.7,0.6l-1.3,1.2l-1.8-0.4l-1.8,0.4l-1.3-1.2l-1.7-0.6l-0.6-1.7l-1.2-1.3l0.4-1.7l-0.4-1.8l1.2-1.3l0.6-1.7
			l1.7-0.6l1.3-1.2l1.8,0.4l0,0l1.7-0.4l1.3,1.2l1.7,0.6l0.5,1.7l1.2,1.3l-0.4,1.8L134.5,153L134.5,153z"/>
		<path class="st0" d="M124.4,83.4c0,3.1-1.2,6-3.4,8.2s-5.1,3.4-8.2,3.4s-6-1.2-8.2-3.4c-2.2-2.2-3.4-5.1-3.4-8.2
			c0-1.1,0.2-2.2,0.5-3.3l13.8-8c2.1,0.5,4,1.6,5.5,3.1C123.1,77.4,124.4,80.4,124.4,83.4L124.4,83.4z"/>
		<path class="st0" d="M94.7,83.4c0,3.1-1.2,6-3.4,8.2S86.2,95,83.1,95s-6-1.2-8.2-3.4c-2.2-2.2-3.4-5.1-3.4-8.2s1.2-6,3.4-8.2
			c1.5-1.5,3.4-2.6,5.5-3.1l13.8,8C94.6,81.2,94.7,82.3,94.7,83.4z"/>
	</g>
	<g>
		<g>
			<path class="st0" d="M276.5,44.5l0.4,0.1l0.4,0.1l0.4,0.1l0.4,0.1l0.4,0.1l0.4,0.1l0.4,0.2l0.4,0.1l0.4,0.2l0.4,0.2l0.4,0.2
				l0.4,0.2l0.4,0.2l0.4,0.2l0.3,0.2l0.4,0.2l0.4,0.2l0.3,0.3l0.4,0.2l0.3,0.3l0.3,0.3l0.3,0.3l0.3,0.3l0.3,0.3l0.4,0.6l0.2,0.3
				l0.3,0.3l0.2,0.3l0.2,0.3l0.2,0.3l0.2,0.3l0.2,0.3l0.2,0.3l0.2,0.3l0.2,0.3l0.2,0.3l0.1,0.4l0.2,0.3l0.1,0.4l0,0.2l0.1,0.2l0,0.1
				l0.1,0.2l0,0.2l0,0.1v0.1l0,0v0.1l0,0.2l0,0.1v0.1l0,0.1l0,0.2l0,0.1l0,0.1l0,0.1v0.1l0,0.1V57l0,0.1l0,0.2l0,0.2v0.2l0,0.1V58h0
				l-10.8,3.5l0-0.4l-0.1-0.4l-0.1-0.4l-0.1-0.4l-0.1-0.4l-0.1-0.3l-0.2-0.4l-0.1-0.3l-0.2-0.3l-0.1-0.2l-0.1-0.1l-0.1-0.2l-0.1-0.1
				l-0.1-0.1l-0.1-0.1l-0.2-0.3l-0.1-0.1l-0.1-0.1l-0.1-0.1l-0.1-0.1l-0.2-0.2l-0.1-0.1l-0.1-0.1l-0.1-0.1l-0.1,0L275,56l-0.1,0
				l-0.2-0.1l-0.2,0l-0.2,0l-0.2,0l-0.2-0.1h-0.2l-0.2,0l-0.2,0l-0.2,0h-0.3l-6.4-0.1l0,0H266l-0.4,0l-0.2,0l-0.2,0l-0.4,0.1
				l-0.4,0.1l-0.4,0.1l-0.4,0.2l-0.2,0.1l-0.2,0.1l-0.2,0.1l-0.2,0.1l-0.2,0.1l-0.1,0.1l-0.1,0.1l-0.1,0.1l-0.2,0.1l-0.1,0.1
				l-0.1,0.1l-0.1,0.1l-0.2,0.3l-0.1,0.2l-0.1,0.2l-0.1,0.2l-0.1,0.2l-0.1,0.3l-0.1,0.3l-0.1,0.4l0,0.4l0,0.4l0,0.4v0.9l0,0
				l0.2,25.4l0,0.4V88l0,0.9v1.8l0,0.2V91l0,0.2v0.2l0.1,0.2l0,0.2l0,0.2l0.1,0.2l0.1,0.2l0.1,0.2l0.1,0.1l0.1,0.2l0.1,0.2l0.1,0.1
				l0.1,0.1l0.2,0.1l0.1,0.1l0.2,0.1l0.4,0.3l0.3,0.2l0.2,0.1l0.2,0.1l0.2,0l0.2,0.1l0.2,0l0.2,0.1l0.4,0.1l0.2,0h0.2l8.1-0.1l0.3,0
				h0.2l0.2,0l0.2,0l0.1,0h0.1l0.2,0l0.2,0l0.1,0h0.1l0.1,0h0l0.1,0h0l0,0l0.1,0l0.1,0l0,0l0.1,0l0.1-0.1l0.1,0l0.1-0.1l0.2-0.2
				l0-0.1l0,0l0.1-0.1l0.1-0.1l0.1-0.1l0.1-0.1l0,0l0.1-0.1l0.1-0.1l0.1-0.1l0.1-0.1l0.1-0.1l0.1-0.2l0.1-0.2l0.1-0.1l0.1-0.2l0-0.2
				l0.1-0.2l0-0.1v0l0,0l0-0.2l0.1-0.2l0-0.2l0,0v0l0-0.1l0-0.2v-0.1l0,0V90l0-0.2l0-0.2l0-0.2v-0.1l0-0.1l0-0.2l0-0.2v-0.2
				l10.4,3.2l-0.1,0.4v0.1l0,0v0.3l-0.1,0.4l0,0.2l0,0.2l0,0.1l0,0.1l0,0.2l0,0.2l0,0.2l-0.1,0.4l0,0.1l0,0.1l0,0.2l-0.2,0.3
				l-0.1,0.4l-0.2,0.3l-0.1,0.4l-0.2,0.3l-0.2,0.3l-0.2,0.3l-0.2,0.3l-0.1,0.1l-0.1,0.2l-0.2,0.3l-0.2,0.3l-0.2,0.3l-0.2,0.3
				l-0.1,0.1l-0.1,0.2l-0.2,0.3l-0.1,0.1l-0.1,0.1l-0.2,0.3l-0.3,0.3l-0.1,0.1l-0.1,0.2l-0.1,0.1l-0.1,0.1l0,0.1l-0.1,0l-0.1,0.1
				l-0.3,0.3l-0.2,0.1l0,0l-0.1,0.1l-0.3,0.2l-0.3,0.2l-0.3,0.2l-0.4,0.2l-0.3,0.2l-0.4,0.2l0,0h0l0,0l-0.2,0.1l-0.3,0.2l-0.3,0.2
				l-0.7,0.3l-0.4,0.1l-0.3,0.1l-0.3,0.1l-0.3,0.1l-0.6,0.2h-0.1l-0.1,0h-0.1l-0.1,0h-0.1l-0.1,0H277l-0.1,0h-0.4l-0.1,0h-0.5
				l-0.1,0h-0.4l-0.2,0h-0.6l-0.1,0h-1.4l-8,0.1h-1.4l-0.1,0h-0.3l-0.2,0h-0.1l-0.2,0l-0.2,0l-0.2,0h-0.1l-0.2,0l-0.2,0l-0.2,0h0
				l0,0h-0.1l-0.2,0l-0.4-0.1l-0.4-0.1l-0.4-0.1l-0.4-0.2l-0.4-0.1l-0.4-0.2l-0.4-0.2l-0.4-0.2l-0.4-0.2l-0.4-0.2l-0.4-0.2l-0.4-0.2
				l-0.4-0.2l-0.3-0.2l-0.3-0.2l-0.3-0.3l-0.3-0.3l-0.3-0.3l-0.3-0.3l-0.3-0.3l-0.3-0.3l-0.3-0.3l-0.3-0.3l-0.2-0.3l-0.3-0.3
				l-0.2-0.3l-0.3-0.3l-0.2-0.4l-0.2-0.3l-0.2-0.4l-0.2-0.4l-0.2-0.4l-0.2-0.4l-0.1-0.4l-0.2-0.4l-0.1-0.4l-0.2-0.4l-0.1-0.3
				l-0.1-0.3l-0.1-0.4l-0.1-0.3l-0.1-0.3l-0.1-0.4l0-0.4L250,92l0-0.4l0-0.4v-0.4l0-0.1v-0.5l-0.1-31.7v-0.1l0-0.4l0-0.3l0.1-0.3
				l0-0.3l0-0.3l0.1-0.3l0-0.3l0.1-0.3l0-0.3l0.1-0.3l0.1-0.3l0-0.2l0.1-0.2l0.1-0.2l0.1-0.2l0.1-0.2l0.4-0.7l0.4-0.7l0.4-0.7
				l0.4-0.7l0.3-0.3l0.2-0.3l0.3-0.3l0.3-0.3l0.3-0.3L254,49l0.4-0.3l0.3-0.3l0.4-0.3l0.4-0.3l0.3-0.2l0.3-0.3l0.4-0.2l0.3-0.2
				l0.4-0.2l0.3-0.2l0.7-0.3l0.7-0.3l0.7-0.3l0.7-0.2l0.4-0.1l0.4-0.1l0.4-0.1l0.4-0.1l0.4-0.1l0.4-0.1l0.4,0l0.4-0.1l0.4-0.1l0.4,0
				l0.4,0l0.4,0h9.4l0.2,0h0.5l0.2,0h0.6l0.2,0h0.1l0.1,0h0.1L276.5,44.5L276.5,44.5z"/>
			<path class="st0" d="M329.5,45.2l0.4,0.1l0.2,0l0.2,0.1l0.4,0.1l0.4,0.2l0.3,0.1l0.4,0.2l0.4,0.2l0.3,0.2l0.3,0.2l0.4,0.2
				l0.3,0.2l0.3,0.2l0.3,0.3l0.3,0.2l0.3,0.3l0.3,0.3l0.3,0.3l0.3,0.3l0.2,0.3l0.3,0.3l0.2,0.3L336,50l0.2,0.3l0.2,0.3l0.2,0.3
				l0.2,0.3l0.2,0.3l0.2,0.3l0.1,0.3l0.2,0.3l0.1,0.3l0.1,0.4l0.1,0.3l0.1,0.3l0.1,0.3l0,0.4l0.1,0.3l0,0.4l0,0.3l0,0.4v0.3l0,0.3
				v0.8l0,0.2v1l0,8l0,0.3V68l0,0.2v0.2l0,0.2v0.2l0,0.2l0,0.2v0.1l0,0v0.3l0,0.2l0,0.1v0.1l0,0v0.2l0,0.2l0,0.2l-0.1,0.2l0,0.2
				l0,0.2l0,0.2l-0.1,0.2l0,0.2l-0.1,0.2l0,0.2l-0.1,0.2l0,0l0,0.1v0l-0.1,0.1l0,0.2l-0.1,0.2h0v0.1l0,0.1l-0.1,0.1l-0.1,0.2
				l-0.1,0.2l-0.1,0.1l-0.1,0.2l0,0.1l-0.1,0l-0.1,0.2l0,0.1l0,0l-0.1,0.2l-0.1,0.1l-0.1,0.1l-0.1,0.1l0,0h0l0,0.1l0,0.1h0v0
				l-0.1,0.1l-0.1,0.1l-0.1,0.1l-0.1,0.1l-0.1,0.1l-0.3,0.2l-0.3,0.2l-0.1,0.1l0,0l-0.1,0l-0.1,0.1l0,0l-0.2,0.1l-0.1,0.1l-0.1,0.1
				l-0.4,0.2l-0.1,0.1l-0.2,0.1l-0.2,0.1l-0.2,0.1l-0.3,0.2l-0.4,0.2l-0.4,0.2l-0.3,0.1l-0.4,0.2l-0.4,0.1l-0.3,0.1l-0.2,0l-0.2,0
				l-0.3,0.1h-0.2l-0.1,0l-0.1,0l-0.2,0l-0.3,0l-0.3,0.1h-0.1l-0.1,0l-0.3,0h-0.4l-0.2,0h-0.9l12.3,26.1h-12.1l-12.6-26h-3.1l0,26.1
				h-11.1L300,44.2l22.5,0l0.6,0h1l0.5,0h0.5l0.4,0l0.5,0l0.4,0l0.4,0.1l0.4,0l0.4,0.1l0.4,0.1l0.4,0.1l0.4,0.1l0.4,0.1l0.4,0.1
				L329.5,45.2z M325.3,56l-0.4-0.1l-0.4-0.1l-0.2,0l-0.2,0l-0.4,0l-0.4,0h-12.1l0,13.1l11.2,0h1.9l0.1,0l0.1,0h0.1l0.1,0l0.1,0
				l0.1-0.1l0.2,0l0,0h0v0l0.1-0.1l0.1-0.1l0.2-0.1l0.2-0.2l0.1-0.1l0.1-0.1l0.1-0.1l0,0l0.1-0.1v-0.1h0l0-0.1l0-0.1l0,0l0.1-0.2
				l0-0.2l0.1-0.2v-0.1l0,0v-0.1l0-0.1v-0.1l0-0.1v-0.1l0-0.2V65l0,0h0v-5.1h0v-0.7l0-0.1v-0.4l0-0.1v-0.3l0-0.1l0-0.2v-0.2l0-0.2
				l0-0.2l-0.1-0.2l0-0.1l-0.1-0.2l-0.1-0.1l-0.1-0.1l-0.1-0.1l-0.1-0.1l-0.1-0.1l-0.1-0.1l-0.1-0.1l-0.2-0.1l-0.1,0l-0.2-0.1
				L325.3,56L325.3,56z"/>
			<path class="st0" d="M362.2,44.3H373l14.2,61l-10.8,0.1l-2.3-10l-12.4,0.1l-2.3,9.9l-10.8,0.1L362.2,44.3L362.2,44.3z
				 M367.6,65.6l-0.2,0l-0.1,0.1l-0.1,0l-0.1,0.1l0,0l0,0.1l0,0.1v0.1l-3.5,17.8V84l0,0.1v0.1l0,0l0,0l0,0v0.1l0.1,0l0.1,0.1l0,0
				l0.1,0l0,0.1l0,0h0.1l0.1,0h6.7l0.2,0h0.1l0.2,0h0.1l0.1,0h0.1l0.1,0l0,0l0.1,0l0,0l0.1-0.1l0,0l0-0.1l0-0.1l0,0v0l0,0v-0.3
				l-1.9-8.9l-1.9-8.9l-0.1-0.2l-0.1-0.1l-0.1-0.1l-0.1-0.1l-0.1,0L367.6,65.6L367.6,65.6L367.6,65.6z"/>
			<path class="st0" d="M436.7,44.4v10.9l-25.5,39.4l26,0v10.9h-39L398.1,95l25.8-39.5l-26.1,0.1l-0.1-11.2L436.7,44.4L436.7,44.4z"
				/>
			<path class="st0" d="M486,44.4V46l0,0.8v0.8l0,0.8l0,0.8l-0.1,0.7l-0.1,0.8l-0.1,0.7l-0.1,0.7l-0.1,0.4l0,0.2l0,0.2l-0.1,0.4
				l-0.1,0.2l0,0.2l-0.1,0.2l-0.1,0.2l-0.1,0.2l-0.1,0.3l-0.1,0.1l0,0.1l-0.1,0.2l-0.1,0.2l0,0.1l0,0.1l-0.1,0.2l0,0.1l0,0.1L484,56
				l0,0.2l-11.7,26.5l0.1,22.9h-10.8l-0.2-22.7l-12.1-26.5l-0.1-0.3l-0.1-0.2l-0.1-0.3l-0.1-0.2l-0.1-0.2l-0.1-0.1l0-0.2l0-0.1
				l-0.1-0.3l-0.1-0.2l-0.1-0.2l0-0.2l-0.2-0.4l0-0.2l-0.1-0.2l-0.1-0.4l-0.1-0.4l-0.1-0.7l-0.1-0.7l-0.1-0.8l0-0.7l-0.1-0.8v-0.8
				l0-0.8v-2.5H458v3l0,0.1v0.4l0,0.4l0,0.4l0,0.2l0,0.2l0,0.2l0,0.2l0.1,0.3l0,0.2l0,0.1l0,0.2l0.1,0.2l0,0v0.1l0,0.1l0,0v0.1
				l0,0.1l0.1,0.2l0,0.1l0,0.1l0.1,0.2l0.1,0.3l0.1,0.1l0.1,0.2l0,0.2l0.1,0.2l7,15.9l7.6-17l0-0.1l0-0.1l0-0.1l0-0.1l0-0.1l0,0
				l0-0.1l0-0.1v-0.1l0,0v0l0,0l0,0l0-0.2l0-0.1l0.1-0.2V50l0-0.1v-0.1l0-0.1l0-0.2l0-0.2l0-0.2l0-0.2v-0.1l0-0.1v-0.3l0-0.1v-0.3
				l0-0.3v-3l0-0.4h10.8L486,44.4z"/>
			<path class="st0" d="M535.4,44.3v10.9l-27.6,0l0.2,14.3l19.8-0.1l0,11.1h-20l0.1,24.9l-11.1,0l-0.2-61.1L535.4,44.3L535.4,44.3z"
				/>
			<path class="st0" d="M546.8,44.4l10.8,0l0.2,61.1H547L546.8,44.4L546.8,44.4z"/>
			<path class="st0" d="M607.2,48.3l-0.1,0.4l0,0.4l-0.1,0.4l-0.1,0.4l-0.1,0.4l-0.1,0.4l-0.1,0.3l-0.1,0.4l0,0.2l0,0.2l-0.1,0.3
				l0,0.2l-0.1,0.2l-0.1,0.3L606,53l0,0.1v0.1l-0.1,0.2l0,0l0,0.1l0,0.1l-0.1,0.2l-0.2,0.3l-0.1,0.3l-0.2,0.3L605,55l-0.2,0.3
				L594.5,75l11.2,19.9l0.2,0.3l0.2,0.3l0.2,0.3l0.2,0.3l0.2,0.3l0.2,0.3l0.2,0.3l0.2,0.4l0.1,0.1l0,0.2l0.1,0.3l0,0.2l0,0.2
				l0.1,0.4l0,0.4l0,0.4l0.1,0.8v0.9l0,0.3v3.5h-10.6v-1.8l0-0.2v-0.7l0-0.2v-0.2l0-0.1v-0.1l0-0.1v-0.1l0-0.1v0l-0.1-0.3l-0.2-0.3
				l-0.2-0.3l-0.2-0.3l-0.1-0.2l-0.1-0.1l0-0.1l-0.1-0.2l-0.1-0.1l-0.1-0.1l0-0.1l0-0.1l0,0l-0.1-0.3l0,0V99l-0.1-0.1l-0.2-0.3
				l-7.8-13.5l-7,13.6l0,0l-0.1,0.3l-0.1,0.3l-0.1,0.3l-0.1,0.2l-0.1,0.2l-0.1,0.2l-0.1,0.2l-0.1,0.2l-0.1,0.3l-0.1,0.3l-0.1,0.3
				l0,0.3l0,0.1v0.3l0,0.1v2.5l0,0.3H569l0-0.4v-0.4l0-0.4v-0.7l0-0.3v-1.3l0-0.3v-0.6l0-0.3v-0.2l0-0.3v-0.2l0-0.2l0-0.4l0-0.2
				v-0.2l0-0.3l0-0.2v-0.1l0-0.2v-0.1l0-0.1v-0.1l0-0.1v-0.1l0.1-0.4l0-0.2l0.1-0.2l0.1-0.4l0.2-0.3l0.3-0.8l0.3-0.7l0.2-0.4
				l0.2-0.3l0.2-0.4l0.2-0.3l9.2-18.3l-10.7-21.2v0l0-0.1l-0.1-0.1l0-0.2l-0.1-0.1V53l0-0.1l0-0.1l-0.1-0.1l0-0.2l0-0.1l-0.1-0.2
				l-0.1-0.2l-0.1-0.4l-0.1-0.4l0-0.2l0-0.2l-0.1-0.4l-0.1-0.4l0-0.2l0-0.2v-0.2l0-0.2v-0.4l0-0.1V45l0-0.6H579l0,0.5v0.7l0,0.3v0.5
				l0,0.2l0,0.3l0,0.4l0.1,0.4l0.1,0.4l0.1,0.5l0,0.2l0.1,0.2l0,0.2l0,0.2l0.1,0.2l0,0.1l0.1,0.1l0,0.1l0,0.1l0,0l0,0.1l0,0.1l0,0.1
				l0,0.1l0,0.1l0.1,0.1l0,0.1l0.1,0.1l0,0.1l0.1,0.2l0.1,0.1l0.1,0.2l0.1,0.2l0.1,0.2l0,0l6.5,12.8l7.3-13.4l0.1-0.3l0.1-0.1l0-0.1
				l0.1-0.1l0-0.1l0.1-0.2l0-0.1l0-0.1l0.1-0.2l0-0.1l0-0.1l0,0v-0.1l0,0l0-0.1l0-0.1l0-0.1v-0.1l0-0.1l0,0V49l0-0.1l0-0.2l0-0.2
				v-0.1l0-0.1l0-0.4l0-0.4l0.1-0.4v-0.5l0-0.1v-2h11.1v2.2l0,0.4v0.4l0,0.4l0,0.4L607.2,48.3z"/>
		</g>
		<g>
			<path class="st0" d="M263.7,124h-2.7l-11.2,27.3h4l2.5-6.2h12.1l2.5,6.2h4L263.7,124L263.7,124z M257.6,141.9l4.8-11.9l4.8,11.9
				L257.6,141.9L257.6,141.9z"/>
			<path class="st0" d="M300.7,151.7c-2,0-3.8-0.5-5.4-1.4s-2.9-2.2-3.8-3.8s-1.4-3.4-1.4-5.4V124h3.7v17.1c0,1.4,0.3,2.7,0.9,3.7
				c0.6,1.1,1.4,1.9,2.5,2.4c1,0.6,2.2,0.9,3.5,0.9s2.5-0.3,3.5-0.9s1.8-1.4,2.4-2.4s0.9-2.3,0.9-3.7V124h3.7v17.2
				c0,2-0.5,3.8-1.4,5.4c-0.9,1.6-2.2,2.8-3.7,3.7C304.6,151.3,302.8,151.7,300.7,151.7L300.7,151.7z"/>
			<polygon class="st0" points="349,124 349,127.4 339.7,127.4 339.7,151.3 336,151.3 336,127.4 326.7,127.4 326.7,124 			"/>
			<path class="st0" d="M375.7,151.7c-1.9,0-3.8-0.4-5.4-1.1s-3.1-1.7-4.4-3s-2.2-2.8-3-4.5c-0.7-1.7-1.1-3.5-1.1-5.5
				s0.4-3.8,1.1-5.5c0.7-1.7,1.7-3.2,2.9-4.5c1.2-1.3,2.7-2.3,4.4-3c1.7-0.7,3.5-1.1,5.4-1.1s3.8,0.3,5.4,1.1c1.7,0.7,3.1,1.7,4.4,3
				c1.3,1.3,2.2,2.8,3,4.5c0.7,1.7,1.1,3.5,1.1,5.5s-0.4,3.8-1.1,5.5c-0.7,1.7-1.7,3.2-2.9,4.5c-1.2,1.3-2.7,2.3-4.4,3
				S377.6,151.7,375.7,151.7L375.7,151.7z M375.6,148.2c1.9,0,3.7-0.4,5.2-1.4s2.7-2.1,3.5-3.7c0.9-1.6,1.3-3.4,1.3-5.4
				c0-1.5-0.2-2.9-0.7-4.2c-0.5-1.3-1.2-2.4-2.1-3.3s-1.9-1.7-3.1-2.2c-1.2-0.5-2.5-0.8-4-0.8c-1.9,0-3.7,0.4-5.1,1.3
				c-1.5,0.9-2.6,2.1-3.5,3.7s-1.3,3.4-1.3,5.4c0,1.5,0.2,2.9,0.7,4.2c0.5,1.3,1.2,2.4,2,3.4c0.9,0.9,1.9,1.7,3.1,2.2
				S374.1,148.2,375.6,148.2L375.6,148.2z"/>
			<polygon class="st0" points="432.9,124 432.9,151.3 429.2,151.3 429.2,132.1 420.9,145.8 418.3,145.8 410,132.1 410,151.3 
				406.3,151.3 406.3,124 408.9,124 419.6,141.6 430.3,124 			"/>
			<path class="st0" d="M463.6,151.7c-1.9,0-3.8-0.4-5.4-1.1s-3.1-1.7-4.4-3s-2.2-2.8-3-4.5c-0.7-1.7-1.1-3.5-1.1-5.5
				s0.4-3.8,1.1-5.5c0.7-1.7,1.7-3.2,2.9-4.5c1.2-1.3,2.7-2.3,4.4-3c1.7-0.7,3.5-1.1,5.4-1.1s3.8,0.3,5.4,1.1c1.7,0.7,3.1,1.7,4.4,3
				c1.3,1.3,2.2,2.8,3,4.5c0.7,1.7,1.1,3.5,1.1,5.5s-0.4,3.8-1.1,5.5c-0.7,1.7-1.7,3.2-2.9,4.5c-1.2,1.3-2.7,2.3-4.4,3
				S465.5,151.7,463.6,151.7L463.6,151.7z M463.5,148.2c1.9,0,3.7-0.4,5.2-1.4s2.7-2.1,3.5-3.7c0.9-1.6,1.3-3.4,1.3-5.4
				c0-1.5-0.2-2.9-0.7-4.2c-0.5-1.3-1.2-2.4-2.1-3.3s-1.9-1.7-3.1-2.2c-1.2-0.5-2.5-0.8-4-0.8c-1.9,0-3.7,0.4-5.1,1.3
				c-1.5,0.9-2.6,2.1-3.5,3.7c-0.9,1.6-1.3,3.4-1.3,5.4c0,1.5,0.2,2.9,0.7,4.2c0.5,1.3,1.2,2.4,2,3.4c0.9,0.9,1.9,1.7,3.1,2.2
				S462.1,148.2,463.5,148.2L463.5,148.2z"/>
			<polygon class="st0" points="512.5,124 512.5,127.4 503.2,127.4 503.2,151.3 499.5,151.3 499.5,127.4 490.2,127.4 490.2,124 			
				"/>
			<path class="st0" d="M528.7,151.3V124h3.7v27.3H528.7z"/>
			<polygon class="st0" points="573.3,124 562.3,151.3 559.6,151.3 548.6,124 552.7,124 561,145.3 569.3,124 			"/>
			<polygon class="st0" points="607.7,147.9 607.7,151.3 589.5,151.3 589.5,124 607.5,124 607.5,127.4 593.2,127.4 593.2,135.8 
				606.5,135.8 606.5,139 593.2,139 593.2,147.9 			"/>
		</g>
	</g>
</g>
</svg>
