<svg width="40" height="50" viewBox="0 0 40 50" fill="none" xmlns="http://www.w3.org/2000/svg">
<path d="M0 0H40V50H0V0Z" fill="#0101F2"/>
<path d="M17.8253 23.0696C17.7424 22.8011 17.6281 22.5608 17.4822 22.3487C17.3397 22.1333 17.1674 21.9493 16.9652 21.7969C16.7663 21.6444 16.5376 21.5301 16.2791 21.4538C16.0206 21.3743 15.7389 21.3345 15.4339 21.3345C14.8871 21.3345 14.3999 21.4721 13.9723 21.7472C13.5447 22.0223 13.2083 22.4266 12.9631 22.9602C12.7211 23.4905 12.6001 24.1368 12.6001 24.8991C12.6001 25.6681 12.7211 26.3194 12.9631 26.853C13.205 27.3866 13.5414 27.7926 13.9723 28.071C14.4032 28.3461 14.9036 28.4837 15.4737 28.4837C15.9908 28.4837 16.4382 28.3842 16.8161 28.1854C17.1972 27.9865 17.4905 27.7048 17.696 27.3402C17.9015 26.9723 18.0043 26.5414 18.0043 26.0476L18.4219 26.1122H15.6577V24.6705H19.7891V25.8935C19.7891 26.7652 19.6035 27.5192 19.2322 28.1555C18.861 28.7919 18.3506 29.2824 17.701 29.6271C17.0514 29.9685 16.3056 30.1392 15.4638 30.1392C14.5258 30.1392 13.7022 29.9287 12.9929 29.5078C12.2869 29.0836 11.7351 28.482 11.3374 27.7031C10.9429 26.9209 10.7457 25.9929 10.7457 24.919C10.7457 24.0971 10.8617 23.3629 11.0938 22.7166C11.3291 22.0703 11.6572 21.5218 12.0781 21.071C12.4991 20.617 12.9929 20.2723 13.5597 20.0369C14.1264 19.7983 14.7429 19.679 15.4091 19.679C15.9725 19.679 16.4979 19.7618 16.9851 19.9276C17.4723 20.09 17.9048 20.322 18.2827 20.6236C18.6638 20.9252 18.977 21.2831 19.2223 21.6974C19.4676 22.1117 19.6283 22.5691 19.7045 23.0696H17.8253ZM21.5726 30V19.8182H25.4703C26.2061 19.8182 26.8176 19.9342 27.3049 20.1662C27.7954 20.3949 28.1616 20.7081 28.4036 21.1058C28.6489 21.5036 28.7715 21.9543 28.7715 22.4581C28.7715 22.8724 28.6919 23.227 28.5328 23.522C28.3738 23.8137 28.16 24.0507 27.8915 24.233C27.623 24.4152 27.3231 24.5462 26.9917 24.6257V24.7251C27.3529 24.745 27.6993 24.8561 28.0307 25.0582C28.3655 25.2571 28.6389 25.5388 28.851 25.9034C29.0632 26.268 29.1692 26.7088 29.1692 27.2259C29.1692 27.7528 29.0416 28.2268 28.7864 28.6477C28.5312 29.0653 28.1467 29.3951 27.633 29.6371C27.1193 29.879 26.473 30 25.6941 30H21.5726ZM23.4171 28.4588H25.4007C26.0703 28.4588 26.5525 28.3312 26.8475 28.076C27.1458 27.8175 27.2949 27.486 27.2949 27.0817C27.2949 26.7801 27.2203 26.5083 27.0712 26.2663C26.9221 26.0211 26.7099 25.8288 26.4348 25.6896C26.1597 25.5471 25.8316 25.4759 25.4505 25.4759H23.4171V28.4588ZM23.4171 24.1484H25.2417C25.5598 24.1484 25.8465 24.0904 26.1017 23.9744C26.3569 23.8551 26.5575 23.6877 26.7033 23.4723C26.8525 23.2536 26.927 22.995 26.927 22.6967C26.927 22.3023 26.7878 21.9775 26.5094 21.7223C26.2343 21.4671 25.825 21.3395 25.2814 21.3395H23.4171V24.1484Z" fill="white"/>
</svg>
